<?xml version="1.0" standalone="no"?>
<!DOCTYPE svg PUBLIC "-//W3C//DTD SVG 20010904//EN"
 "http://www.w3.org/TR/2001/REC-SVG-20010904/DTD/svg10.dtd">
<svg version="1.0" xmlns="http://www.w3.org/2000/svg"
 width="4000.000000pt" height="4000.000000pt" viewBox="0 0 4000.000000 4000.000000"
 preserveAspectRatio="xMidYMid meet">
<metadata>
Created by potrace 1.16, written by Peter Selinger 2001-2019
</metadata>
<g transform="translate(0.000000,4000.000000) scale(0.100000,-0.100000)"
fill="#000000" stroke="none">
<path d="M18130 37815 l0 -315 -1565 0 -1565 0 0 -310 0 -310 -935 0 -935 0 0
-315 0 -315 -625 0 -625 0 0 -310 0 -310 -625 0 -625 0 0 -315 0 -315 -630 0
-630 0 0 -310 0 -310 -310 0 -310 0 0 -315 0 -315 -315 0 -315 0 0 -310 0
-310 -310 0 -310 0 0 -315 0 -315 -315 0 -315 0 0 -310 0 -310 -310 0 -310 0
0 -315 0 -315 -315 0 -315 0 0 -310 0 -310 -310 0 -310 0 0 -630 0 -630 -315
0 -315 0 0 -625 0 -625 -310 0 -310 0 0 -625 0 -625 -315 0 -315 0 0 -935 0
-935 -310 0 -310 0 0 -1250 0 -1250 -315 0 -315 0 0 -2500 0 -2500 315 0 315
0 0 -1250 0 -1250 310 0 310 0 0 -940 0 -940 315 0 315 0 0 -625 0 -625 310 0
310 0 0 -625 0 -625 315 0 315 0 0 -625 0 -625 310 0 310 0 0 -310 0 -310 315
0 315 0 0 -315 0 -315 310 0 310 0 0 -310 0 -310 315 0 315 0 0 -315 0 -315
310 0 310 0 0 -310 0 -310 315 0 315 0 0 -315 0 -315 310 0 310 0 0 -310 0
-310 630 0 630 0 0 -315 0 -315 625 0 625 0 0 -310 0 -310 625 0 625 0 0 -315
0 -315 935 0 935 0 0 -310 0 -310 1565 0 1565 0 0 -315 0 -315 1875 0 1875 0
0 315 0 315 1560 0 1560 0 0 310 0 310 940 0 940 0 0 315 0 315 625 0 625 0 0
310 0 310 625 0 625 0 0 315 0 315 310 0 310 0 0 310 0 310 625 0 625 0 0 315
0 315 315 0 315 0 0 310 0 310 310 0 310 0 0 315 0 315 315 0 315 0 0 310 0
310 310 0 310 0 0 315 0 315 315 0 315 0 0 625 0 625 310 0 310 0 0 310 0 310
315 0 315 0 0 625 0 625 310 0 310 0 0 625 0 625 315 0 315 0 0 940 0 940 310
0 310 0 0 1560 0 1560 315 0 315 0 0 1875 0 1875 -315 0 -315 0 0 1565 0 1565
-310 0 -310 0 0 935 0 935 -315 0 -315 0 0 625 0 625 -310 0 -310 0 0 625 0
625 -315 0 -315 0 0 315 0 315 -310 0 -310 0 0 625 0 625 -315 0 -315 0 0 315
0 315 -310 0 -310 0 0 310 0 310 -315 0 -315 0 0 315 0 315 -310 0 -310 0 0
310 0 310 -315 0 -315 0 0 315 0 315 -625 0 -625 0 0 310 0 310 -310 0 -310 0
0 315 0 315 -625 0 -625 0 0 310 0 310 -625 0 -625 0 0 315 0 315 -940 0 -940
0 0 310 0 310 -1560 0 -1560 0 0 315 0 315 -1875 0 -1875 0 0 -315z m-4380
-8130 l0 -315 315 0 315 0 0 -310 0 -310 310 0 310 0 0 -315 0 -315 315 0 315
0 0 -625 0 -625 310 0 310 0 0 -310 0 -310 315 0 315 0 0 -315 0 -315 310 0
310 0 0 -310 0 -310 315 0 315 0 0 -315 0 -315 310 0 310 0 0 -625 0 -625 315
0 315 0 0 -310 0 -310 310 0 310 0 0 -315 0 -315 315 0 315 0 0 -310 0 -310
310 0 310 0 0 -315 0 -315 315 0 315 0 0 -310 0 -310 310 0 310 0 0 -625 0
-625 315 0 315 0 0 -315 0 -315 310 0 310 0 0 -310 0 -310 315 0 315 0 0 -315
0 -315 310 0 310 0 0 -310 0 -310 315 0 315 0 0 -625 0 -625 310 0 310 0 0
-315 0 -315 315 0 315 0 0 5625 0 5625 -315 0 -315 0 0 -310 0 -310 -310 0
-310 0 0 -315 0 -315 -315 0 -315 0 0 -310 0 -310 -625 0 -625 0 0 -315 0
-315 -310 0 -310 0 0 -310 0 -310 -315 0 -315 0 0 -315 0 -315 -310 0 -310 0
0 625 0 625 310 0 310 0 0 625 0 625 315 0 315 0 0 315 0 315 310 0 310 0 0
625 0 625 315 0 315 0 0 310 0 310 310 0 310 0 0 625 0 625 315 0 315 0 0 315
0 315 310 0 310 0 0 310 0 310 315 0 315 0 0 315 0 315 935 0 935 0 0 -315 0
-315 315 0 315 0 0 -310 0 -310 310 0 310 0 0 -8750 0 -8750 -310 0 -310 0 0
-315 0 -315 -315 0 -315 0 0 -310 0 -310 -1250 0 -1250 0 0 310 0 310 -310 0
-310 0 0 315 0 315 -315 0 -315 0 0 310 0 310 -310 0 -310 0 0 315 0 315 -315
0 -315 0 0 625 0 625 -310 0 -310 0 0 310 0 310 -315 0 -315 0 0 315 0 315
-310 0 -310 0 0 310 0 310 -315 0 -315 0 0 315 0 315 -310 0 -310 0 0 625 0
625 -315 0 -315 0 0 310 0 310 -310 0 -310 0 0 315 0 315 -315 0 -315 0 0 310
0 310 -310 0 -310 0 0 315 0 315 -315 0 -315 0 0 625 0 625 -310 0 -310 0 0
310 0 310 -315 0 -315 0 0 315 0 315 -310 0 -310 0 0 310 0 310 -315 0 -315 0
0 315 0 315 -310 0 -310 0 0 625 0 625 -315 0 -315 0 0 310 0 310 -310 0 -310
0 0 -5625 0 -5625 310 0 310 0 0 315 0 315 315 0 315 0 0 310 0 310 310 0 310
0 0 315 0 315 625 0 625 0 0 310 0 310 315 0 315 0 0 315 0 315 310 0 310 0 0
310 0 310 315 0 315 0 0 -625 0 -625 -315 0 -315 0 0 -625 0 -625 -310 0 -310
0 0 -310 0 -310 -315 0 -315 0 0 -625 0 -625 -310 0 -310 0 0 -315 0 -315
-315 0 -315 0 0 -625 0 -625 -310 0 -310 0 0 -310 0 -310 -315 0 -315 0 0
-315 0 -315 -310 0 -310 0 0 -310 0 -310 -940 0 -940 0 0 310 0 310 -310 0
-310 0 0 315 0 315 -315 0 -315 0 0 8750 0 8750 315 0 315 0 0 310 0 310 310
0 310 0 0 315 0 315 1250 0 1250 0 0 -315z"/>
</g>
</svg>
