<?xml version="1.0" standalone="no"?>
<!DOCTYPE svg PUBLIC "-//W3C//DTD SVG 20010904//EN"
 "http://www.w3.org/TR/2001/REC-SVG-20010904/DTD/svg10.dtd">
<svg version="1.0" xmlns="http://www.w3.org/2000/svg"
 width="4000.000000pt" height="4000.000000pt" viewBox="0 0 4000.000000 4000.000000"
 preserveAspectRatio="xMidYMid meet">

<g transform="translate(0.000000,4000.000000) scale(0.100000,-0.100000)"
fill="#000000" stroke="none">
<path d="M15000 37500 l0 -500 -1500 0 -1500 0 0 -500 0 -500 -500 0 -500 0 0
-500 0 -500 -1000 0 -1000 0 0 -500 0 -500 -500 0 -500 0 0 -500 0 -500 -500
0 -500 0 -2 -497 -3 -498 -497 -3 -498 -2 0 -484 c0 -267 -3 -491 -6 -500 -5
-14 -59 -16 -500 -16 l-494 0 -2 -997 -3 -998 -497 -3 -498 -2 -2 -498 -3
-497 -497 -3 -498 -2 -2 -1498 -3 -1497 -497 -3 -498 -2 0 -5000 0 -5000 498
-2 497 -3 3 -1497 2 -1498 498 -2 497 -3 3 -497 2 -498 488 0 c366 0 491 -3
500 -12 9 -9 12 -245 12 -1000 l0 -988 498 -2 497 -3 3 -497 2 -498 498 -2
497 -3 3 -497 2 -498 498 -2 497 -3 3 -497 2 -498 498 -2 497 -3 3 -497 2
-498 998 -2 997 -3 3 -497 2 -498 498 -2 497 -3 3 -497 2 -498 1498 -2 1497
-3 3 -497 2 -498 5000 0 5000 0 2 498 3 497 1497 3 1498 2 2 498 3 497 497 3
498 2 2 498 3 497 997 3 998 2 2 498 3 497 497 3 498 2 2 498 3 497 497 3 498
2 2 498 3 497 497 3 498 2 2 498 3 497 497 3 498 2 2 998 3 997 497 3 498 2 2
498 3 497 497 3 498 2 2 1498 3 1497 498 3 497 2 0 5000 0 5000 -497 2 -498 3
-3 1497 -2 1498 -498 2 -497 3 -3 497 -2 498 -498 2 -497 3 -3 998 -2 997
-494 0 c-441 0 -495 2 -500 16 -3 9 -6 233 -6 500 l0 484 -497 2 -498 3 -3
498 -2 497 -500 0 -500 0 0 500 0 500 -500 0 -500 0 0 500 0 500 -1000 0
-1000 0 0 500 0 500 -500 0 -500 0 0 500 0 500 -1500 0 -1500 0 0 500 0 500
-5000 0 -5000 0 0 -500z m12008 -6984 c1 -341 6 -493 13 -503 9 -10 103 -13
495 -13 l484 0 2 -492 3 -493 506 -3 506 -2 -5 -2495 -5 -2495 507 0 506 0 0
-505 0 -505 485 0 485 0 5 -22 c3 -13 4 -468 3 -1013 l-3 -990 -497 -3 -498
-2 0 -4995 0 -4995 -495 0 -495 0 -2 -998 -3 -997 -495 -5 -495 -5 -3 -494
c-1 -333 -6 -498 -13 -507 -16 -20 -6977 -8 -7000 12 -13 12 -180 14 -996 14
-938 0 -981 -1 -997 -18 -16 -18 -136 -19 -3501 -25 l-3485 -6 -26 25 -27 24
-478 0 -479 0 0 478 c0 314 -4 482 -10 488 -7 7 -10 339 -10 1012 l0 1002
-507 2 -508 3 -3 989 c-2 765 1 992 10 1003 10 12 13 1108 15 5011 2 4422 1
4998 -12 5012 -13 15 -15 84 -13 516 l3 499 509 3 509 2 -4 1996 -4 1995 486
-1 c439 -1 488 1 503 16 15 15 16 62 14 495 -2 314 0 479 7 479 6 1 223 0 482
0 317 0 480 3 493 10 20 10 20 22 20 991 0 539 2 985 5 990 4 5 2750 8 7008 7
l7002 -3 3 -489z"/>
<path d="M11990 24502 l0 -502 -485 0 -485 0 0 -989 c0 -781 3 -992 13 -998 6
-4 226 -10 487 -13 l475 -5 5 -483 c5 -464 6 -484 24 -498 17 -12 166 -14 976
-14 810 0 959 2 976 14 18 14 19 34 24 498 l5 483 489 3 c377 2 492 5 498 15
12 19 10 1945 -2 1968 -10 18 -26 19 -500 19 l-490 0 0 495 0 495 -253 0
c-140 0 -592 3 -1005 7 l-752 6 0 -501z"/>
<path d="M26510 24990 l-505 -5 -3 -492 -2 -493 -488 0 c-366 0 -491 -3 -500
-12 -9 -9 -12 -245 -12 -1000 l0 -988 500 0 500 0 0 -500 0 -500 995 0 c547 0
996 1 997 3 2 1 5 225 8 497 l5 495 487 5 c267 3 488 7 491 10 3 3 8 454 12
1003 l8 997 -497 0 -496 0 -2 493 -3 492 -495 0 c-272 0 -722 -2 -1000 -5z"/>
<path d="M17012 22988 c-9 -9 -12 -134 -12 -500 l0 -488 -495 0 -495 0 -2
-502 -3 -503 -492 -3 -493 -2 0 -493 c0 -370 -3 -496 -12 -505 -9 -9 -133 -12
-495 -12 l-483 0 -2 -502 -3 -503 -497 -3 -498 -2 -2 -498 -3 -497 -502 -3
-503 -2 0 -1470 0 -1470 489 0 c432 0 491 -2 505 -16 14 -14 16 -73 16 -505
l0 -489 1493 -2 1492 -3 3 -497 2 -498 998 -2 997 -3 3 -497 2 -498 1985 0
1985 0 0 495 0 495 998 2 997 3 5 495 5 495 1125 6 c619 3 1290 7 1493 8 l367
1 0 473 c0 259 3 482 6 495 l6 22 499 0 499 0 0 1490 0 1490 -500 0 -500 0 0
500 0 500 -495 0 -495 0 0 494 c0 272 -3 501 -6 510 -5 14 -58 16 -495 16
l-489 0 -2 493 -3 492 -502 3 -503 2 0 494 c0 441 -2 495 -16 500 -9 3 -231 6
-495 6 l-479 0 0 488 c0 366 -3 491 -12 500 -17 17 -5969 17 -5986 0z"/>
</g>
</svg>
